<?xml version="1.0" encoding="UTF-8"?>
<svg width="1400" height="500" viewBox="0 0 1400 500" fill="none" xmlns="http://www.w3.org/2000/svg">
  <rect width="1400" height="500" fill="#2563EB"/>
  <g transform="translate(60 70)">
    <svg width="1200" height="360" viewBox="0 0 1200 360" fill="none">
      
  <g transform="translate(70 42)">
    <rect x="0" y="0" width="276" height="276" rx="64" fill="#FFFFFF" fill-opacity="0.98"/>
    <rect x="10" y="10" width="256" height="256" rx="56" fill="#1E3A8A"/>
    <path d="M138 36C82 36 37 81 37 137c0 75 101 142 101 142s101-67 101-142c0-56-45-101-101-101Z" fill="#2563EB"/>
    <circle cx="138" cy="133" r="70" fill="#FFFFFF"/>
    <path d="M77 122c0-24 19-43 43-43h36c24 0 43 19 43 43v64c0 17-14 31-31 31H108c-17 0-31-14-31-31v-64Z" fill="#0F172A"/>
    <path d="M96 119c0-10 8-18 18-18h48c10 0 18 8 18 18v28H96v-28Z" fill="#DBEAFE"/>
    <rect x="96" y="162" width="84" height="25" rx="8" fill="#7DD3FC"/>
    <circle cx="108" cy="216" r="11" fill="#0F172A"/>
    <circle cx="168" cy="216" r="11" fill="#0F172A"/>
    <path d="M105 239c22 14 44 14 66 0" stroke="#FFFFFF" stroke-width="9" stroke-linecap="round"/>
    <path d="M48 239 C83 216, 112 260, 151 239 S218 226, 239 248" stroke="#86EFAC" stroke-width="11" stroke-linecap="round" fill="none"/>
    <circle cx="48" cy="239" r="10" fill="#FFFFFF"/>
    <circle cx="239" cy="248" r="10" fill="#FFFFFF"/>
  </g>

      
  <g transform="translate(405 85)">
    <text x="0" y="78" font-family="Inter, Arial, Helvetica, sans-serif" font-size="76" font-weight="850" fill="#FFFFFF">Dhaka Bus Route</text>
    <text x="3" y="132" font-family="Inter, Arial, Helvetica, sans-serif" font-size="30" font-weight="550" fill="#DBEAFE">Find local bus routes across Dhaka</text>
    <g transform="translate(4 176)">
      <path d="M0 22 C93 -17, 163 61, 252 22 S413 17, 507 22" stroke="#FFFFFF" stroke-width="12" stroke-linecap="round" fill="none" opacity="0.95"/>
      <circle cx="0" cy="22" r="16" fill="#7DD3FC"/>
      <circle cx="252" cy="22" r="16" fill="#FDE68A" stroke="#FFFFFF" stroke-width="5"/>
      <circle cx="507" cy="22" r="16" fill="#86EFAC"/>
      <path d="M550 6h42c12 0 22 10 22 22v20c0 8-6 14-14 14h-58c-8 0-14-6-14-14V28c0-12 10-22 22-22Z" fill="#FFFFFF"/>
      <rect x="542" y="18" width="58" height="18" rx="5" fill="#DBEAFE"/>
      <circle cx="550" cy="64" r="7" fill="#FFFFFF"/>
      <circle cx="593" cy="64" r="7" fill="#FFFFFF"/>
    </g>
  </g>

    </svg>
  </g>
</svg>
